<svg xmlns="http://www.w3.org/2000/svg" viewBox="0 0 320 180">
  <rect x="44" y="34" width="132" height="112" rx="10" fill="#FFF1EA" stroke="#3B1409" stroke-width="6"/>
  <g stroke="#3B1409" stroke-width="4">
    <line x1="44" y1="62" x2="176" y2="62"/>
    <line x1="88" y1="34" x2="88" y2="146"/>
    <line x1="132" y1="34" x2="132" y2="146"/>
  </g>
  <g stroke="#3B1409" stroke-width="5" stroke-linecap="round" stroke-linejoin="round" fill="none">
    <polyline points="58,84 64,90 74,78"/>
    <polyline points="102,84 108,90 118,78"/>
    <polyline points="146,84 152,90 162,78"/>
    <polyline points="58,116 64,122 74,110"/>
    <line x1="102" y1="110" x2="118" y2="124"/>
    <line x1="118" y1="110" x2="102" y2="124"/>
    <polyline points="146,116 152,122 162,110"/>
  </g>
  <g transform="rotate(-30 238 98)">
    <ellipse cx="238" cy="98" rx="50" ry="30" fill="#6B3420" stroke="#3B1409" stroke-width="6"/>
    <g stroke="#FFF1EA" stroke-width="4" stroke-linecap="round">
      <line x1="218" y1="98" x2="258" y2="98"/>
      <line x1="226" y1="91" x2="226" y2="105"/>
      <line x1="238" y1="91" x2="238" y2="105"/>
      <line x1="250" y1="91" x2="250" y2="105"/>
    </g>
  </g>
</svg>
